<svg xmlns="http://www.w3.org/2000/svg" width="24.453" height="15.285" viewBox="0 0 24.453 15.285">
  <g id="behance" transform="translate(0 -95.979)">
    <g id="Group_2748" data-name="Group 2748" transform="translate(0 95.979)">
      <g id="Group_2747" data-name="Group 2747" transform="translate(0 0)">
        <path id="Path_710" data-name="Path 710" d="M10.06,102.888a3.668,3.668,0,0,0,1.154-.847,3.29,3.29,0,0,0,.7-2.2,3.758,3.758,0,0,0-.692-2.276A4.664,4.664,0,0,0,7.3,95.979H0v14.907H6.809a10.648,10.648,0,0,0,2.135-.2,4.2,4.2,0,0,0,1.707-.749,4.134,4.134,0,0,0,1.07-1.172,4.307,4.307,0,0,0,.674-2.377,3.911,3.911,0,0,0-.588-2.184A3.4,3.4,0,0,0,10.06,102.888ZM3.013,98.568H6.3a5.8,5.8,0,0,1,1.787.232,1.337,1.337,0,0,1,.812,1.379,1.4,1.4,0,0,1-.614,1.308,3.083,3.083,0,0,1-1.6.37H3.013Zm5.2,9.469a3.6,3.6,0,0,1-1.532.263H3.013v-3.975h3.72a3.883,3.883,0,0,1,1.513.251,1.6,1.6,0,0,1,.961,1.6A1.874,1.874,0,0,1,8.214,108.037Z" transform="translate(0 -95.979)"/>
        <rect id="Rectangle_421" data-name="Rectangle 421" width="6.476" height="1.856" transform="translate(15.627 0.695)"/>
        <path id="Path_711" data-name="Path 711" d="M290.857,175.605a5.319,5.319,0,0,0-.893-2.279,4.5,4.5,0,0,0-1.929-1.631,6.385,6.385,0,0,0-2.629-.517,5.441,5.441,0,0,0-4,1.528,5.93,5.93,0,0,0-1.539,4.4q0,3.056,1.707,4.413a6.133,6.133,0,0,0,3.936,1.356,5.478,5.478,0,0,0,4.2-1.606,3.617,3.617,0,0,0,1.082-1.993h-2.984a2.4,2.4,0,0,1-.6.758,2.5,2.5,0,0,1-1.62.5,3,3,0,0,1-1.612-.416,2.633,2.633,0,0,1-1.171-2.325h8.142A14.025,14.025,0,0,0,290.857,175.605Zm-7.971.286a2.988,2.988,0,0,1,.779-1.706,2.35,2.35,0,0,1,1.744-.631,2.594,2.594,0,0,1,1.735.593,2.411,2.411,0,0,1,.778,1.744Z" transform="translate(-266.504 -167.587)"/>
      </g>
    </g>
  </g>
</svg>
