<svg xmlns="http://www.w3.org/2000/svg" width="10.427" height="19.286" viewBox="0 0 10.427 19.286">
  <g id="facebook-logo" transform="translate(-22.077)">
    <path fill="#fff" id="Path_910" data-name="Path 910" d="M32.111,0l-2.5,0a4.392,4.392,0,0,0-4.625,4.746V6.935H22.47a.393.393,0,0,0-.393.393V10.5a.393.393,0,0,0,.393.393h2.515v8a.393.393,0,0,0,.393.393h3.281a.393.393,0,0,0,.393-.393v-8h2.94a.393.393,0,0,0,.393-.393V7.328a.394.394,0,0,0-.393-.393H29.052V5.079c0-.892.212-1.344,1.374-1.344h1.685a.393.393,0,0,0,.393-.393V.4A.393.393,0,0,0,32.111,0Z"/>
  </g>
</svg>
