<svg xmlns="http://www.w3.org/2000/svg" width="149.425" height="36.136" viewBox="0 0 149.425 36.136">
  <path id="Union_6" data-name="Union 6" d="M-7841.774,3728.075l2-3.857a9.105,9.105,0,0,0,5.309,1.683c2.958,0,4.2-1.334,4.2-3.8v-.522a5.869,5.869,0,0,1-4.668,1.857,7.435,7.435,0,0,1-7.713-7.6,7.426,7.426,0,0,1,7.713-7.568,5.7,5.7,0,0,1,4.93,2.176v-1.914h5.249v12.846c0,5.945-3.364,8.759-9.221,8.759A13.8,13.8,0,0,1-7841.774,3728.075Zm4.7-12.238a3.218,3.218,0,0,0,3.45,3.221,3.2,3.2,0,0,0,3.422-3.221,3.172,3.172,0,0,0-3.422-3.189A3.2,3.2,0,0,0-7837.076,3715.837Zm-56.579.726a7.646,7.646,0,0,1,8-7.829,7.624,7.624,0,0,1,7.977,7.829,7.648,7.648,0,0,1-7.977,7.859A7.67,7.67,0,0,1-7893.655,3716.563Zm2.812,0a5.089,5.089,0,0,0,5.191,5.422,5.066,5.066,0,0,0,5.163-5.422,5.043,5.043,0,0,0-5.163-5.394A5.066,5.066,0,0,0-7890.843,3716.563Zm-36.743,0a7.528,7.528,0,0,1,7.716-7.829c4.437,0,7.6,3.189,7.6,7.917,0,.231-.03.578-.058.839H-7924.8c.349,2.7,2.522,4.495,5.567,4.495a5.74,5.74,0,0,0,4.438-1.854l1.537,1.8a7.708,7.708,0,0,1-6.06,2.495C-7924.279,3724.422-7927.586,3721.146-7927.586,3716.563Zm2.784-1.073h9.861a4.794,4.794,0,0,0-4.93-4.407A4.792,4.792,0,0,0-7924.8,3715.49Zm103.588,8.758v-15.718h5.512v15.718Zm-29.522,0v-15.718h5.51v15.718Zm-23.693,0v-20.3h9.6c6.728,0,11.339,3.915,11.339,10.15s-4.611,10.15-11.339,10.15Zm5.743-4.583h3.625c3.45,0,5.769-2.06,5.769-5.568s-2.319-5.568-5.769-5.568h-3.625Zm-31.64,4.583v-21.519h2.784v21.519Zm-8.09,0v-21.519h2.784v21.519Zm-25.781,0v-8.527c0-3.015-1.508-4.495-4.148-4.495-2.958,0-4.872,1.769-4.872,5.105v7.917H-7946v-21.519h2.784v8.324a6.665,6.665,0,0,1,5.424-2.319c3.739,0,6.379,2.146,6.379,6.668v8.846Zm112.374-20.388c0-1.651,1.334-2.927,3.364-2.927s3.364,1.188,3.364,2.842a3.059,3.059,0,0,1-3.364,3.015C-7820.488,3706.79-7821.822,3705.513-7821.822,3703.86Zm-29.522,0c0-1.651,1.334-2.927,3.364-2.927s3.364,1.188,3.364,2.842a3.058,3.058,0,0,1-3.364,3.015C-7850.01,3706.79-7851.344,3705.513-7851.344,3703.86Zm42.472-3.213a5.582,5.582,0,0,1,5.666-5.647,5.509,5.509,0,0,1,5.631,5.615,5.608,5.608,0,0,1-5.663,5.681A5.575,5.575,0,0,1-7808.872,3700.647Zm.754,0a4.829,4.829,0,0,0,4.88,4.928,4.864,4.864,0,0,0,4.912-4.96,4.765,4.765,0,0,0-4.88-4.9A4.836,4.836,0,0,0-7808.118,3700.647Zm1.679,0a3.207,3.207,0,0,1,3.376-3.3,3.033,3.033,0,0,1,2.592,1.3l-.913.656a1.959,1.959,0,0,0-1.7-.864,2.083,2.083,0,0,0-2.144,2.208,2.083,2.083,0,0,0,2.144,2.208,1.955,1.955,0,0,0,1.7-.864l.913.64a3.007,3.007,0,0,1-2.592,1.312A3.206,3.206,0,0,1-7806.439,3700.647Z" transform="translate(7946.5 -3694.5)" stroke="rgba(0,0,0,0)" stroke-width="1"/>
</svg>
