<svg xmlns="http://www.w3.org/2000/svg" width="21.299" height="21.294" viewBox="0 0 21.299 21.294">
  <g id="instagram_4_" data-name="instagram (4)" transform="translate(0.002 -0.001)">
    <path id="Subtraction_6" data-name="Subtraction 6" d="M14.642,21.294H6.656A6.662,6.662,0,0,1,0,14.642V6.653A6.663,6.663,0,0,1,6.656,0h7.986A6.663,6.663,0,0,1,21.3,6.653v7.989A6.662,6.662,0,0,1,14.642,21.294ZM10.648,5.324a5.325,5.325,0,1,0,5.326,5.325A5.33,5.33,0,0,0,10.648,5.324Zm5.726-1.108a.709.709,0,1,0,.707.707A.709.709,0,0,0,16.375,4.217Z" transform="translate(-0.002 0.001)" fill="#fff"/>
  </g>
</svg>
