<svg xmlns="http://www.w3.org/2000/svg" width="130.906" height="29.203" viewBox="0 0 130.906 29.203">
  <path id="Path_923" data-name="Path 923" d="M10.846-15.515A6.665,6.665,0,0,0,5.423-13.2v-8.323H2.639V0H5.423V-7.917c0-3.335,1.914-5.1,4.872-5.1,2.639,0,4.147,1.479,4.147,4.495V0h2.784V-8.845C17.226-13.369,14.587-15.515,10.846-15.515ZM36.366-7.6c0-4.727-3.161-7.917-7.6-7.917a7.527,7.527,0,0,0-7.714,7.83C21.054-3.1,24.36.174,29.319.174A7.715,7.715,0,0,0,35.38-2.32l-1.537-1.8a5.739,5.739,0,0,1-4.437,1.856c-3.045,0-5.22-1.8-5.568-4.495h12.47C36.337-7.018,36.366-7.366,36.366-7.6Zm-7.6-5.568A4.793,4.793,0,0,1,33.7-8.758h-9.86A4.791,4.791,0,0,1,28.768-13.166ZM40.223,0h2.784V-21.518H40.223Zm8.091,0H51.1V-21.518H48.314ZM62.988.174a7.648,7.648,0,0,0,7.975-7.859,7.624,7.624,0,0,0-7.975-7.83,7.648,7.648,0,0,0-8,7.83A7.671,7.671,0,0,0,62.988.174Zm0-2.436A5.089,5.089,0,0,1,57.8-7.685a5.065,5.065,0,0,1,5.191-5.394A5.043,5.043,0,0,1,68.15-7.685,5.067,5.067,0,0,1,62.988-2.262ZM74.211,0h9.6c6.728,0,11.339-3.915,11.339-10.15S90.538-20.3,83.81-20.3h-9.6Zm5.742-4.582V-15.718h3.625c3.451,0,5.771,2.059,5.771,5.568s-2.32,5.568-5.771,5.568Zm20.706-12.876a3.058,3.058,0,0,0,3.364-3.016c0-1.653-1.334-2.842-3.364-2.842S97.3-22.04,97.3-20.387,98.629-17.458,100.659-17.458ZM97.9,0h5.51V-15.718H97.9Zm20.735-15.718V-13.8a5.7,5.7,0,0,0-4.93-2.175,7.427,7.427,0,0,0-7.714,7.569,7.434,7.434,0,0,0,7.714,7.6,5.867,5.867,0,0,0,4.669-1.856v.522c0,2.465-1.247,3.8-4.205,3.8a9.1,9.1,0,0,1-5.307-1.682l-2,3.857a13.811,13.811,0,0,0,7.8,2.059c5.858,0,9.222-2.813,9.222-8.758V-15.718ZM115.014-5.191a3.219,3.219,0,0,1-3.451-3.219,3.2,3.2,0,0,1,3.451-3.19,3.172,3.172,0,0,1,3.422,3.19A3.194,3.194,0,0,1,115.014-5.191Zm15.167-12.267a3.058,3.058,0,0,0,3.364-3.016c0-1.653-1.334-2.842-3.364-2.842s-3.364,1.276-3.364,2.929S128.151-17.458,130.181-17.458ZM127.426,0h5.51V-15.718h-5.51Z" transform="translate(-2.639 23.316)"/>
</svg>
