<svg xmlns="http://www.w3.org/2000/svg" width="26.448" height="15.089" viewBox="0 0 26.448 15.089">
  <path fill="#fff" id="Path_709" data-name="Path 709" d="M26.308,131.376a1.811,1.811,0,0,0-.09-.172,13.707,13.707,0,0,0-2.63-3.043l-.027-.028-.014-.014-.014-.014h-.014q-.881-.84-1.115-1.129a1.06,1.06,0,0,1-.193-1.116,10.4,10.4,0,0,1,1.239-1.8q.565-.73.895-1.17,2.382-3.167,2.066-4.048l-.082-.137a.805.805,0,0,0-.427-.227,2.168,2.168,0,0,0-.882-.034l-3.966.027a.515.515,0,0,0-.275.007l-.179.041-.069.034-.055.041a.612.612,0,0,0-.152.144.945.945,0,0,0-.137.241,22.484,22.484,0,0,1-1.474,3.1q-.51.854-.937,1.48a7.123,7.123,0,0,1-.716.922,4.994,4.994,0,0,1-.523.475q-.234.179-.358.152l-.234-.055a.916.916,0,0,1-.31-.337,1.511,1.511,0,0,1-.158-.537q-.041-.324-.048-.558t.007-.661q.014-.427.014-.578,0-.523.02-1.136t.035-.971q.014-.358.014-.757a3.182,3.182,0,0,0-.048-.627,2.143,2.143,0,0,0-.144-.441.742.742,0,0,0-.282-.33,1.591,1.591,0,0,0-.461-.186,9.162,9.162,0,0,0-1.859-.179,9.034,9.034,0,0,0-3.291.331,1.855,1.855,0,0,0-.523.413q-.248.3-.069.33a1.688,1.688,0,0,1,1.17.592l.083.165a2.634,2.634,0,0,1,.193.633,6.391,6.391,0,0,1,.124,1,10.719,10.719,0,0,1,0,1.721q-.069.716-.131,1.115a2.233,2.233,0,0,1-.186.647,2.733,2.733,0,0,1-.165.3.237.237,0,0,1-.069.069,1.031,1.031,0,0,1-.372.069.873.873,0,0,1-.468-.193,3.3,3.3,0,0,1-.571-.53,7.088,7.088,0,0,1-.668-.943q-.372-.606-.771-1.432l-.22-.4q-.207-.385-.564-1.122T5.591,119.1a.908.908,0,0,0-.33-.441l-.069-.041a.943.943,0,0,0-.22-.117,1.462,1.462,0,0,0-.317-.089l-3.773.027A.959.959,0,0,0,.1,118.7l-.055.083A.446.446,0,0,0,0,119a1.1,1.1,0,0,0,.083.372q.826,1.942,1.8,3.746t1.687,2.905q.716,1.1,1.46,2.079t.984,1.253q.241.276.379.413l.344.33a8.165,8.165,0,0,0,.971.792,16.546,16.546,0,0,0,1.418.909,7.7,7.7,0,0,0,1.811.73,6.263,6.263,0,0,0,2.01.227h1.584a1.1,1.1,0,0,0,.73-.3l.055-.069a.913.913,0,0,0,.1-.255,1.4,1.4,0,0,0,.048-.379,4.538,4.538,0,0,1,.089-1.067,2.805,2.805,0,0,1,.234-.716,1.76,1.76,0,0,1,.3-.406,1.2,1.2,0,0,1,.234-.2.9.9,0,0,1,.11-.048.874.874,0,0,1,.778.214,4.57,4.57,0,0,1,.84.8q.392.475.943,1.067a6.479,6.479,0,0,0,.964.881l.275.165a3.354,3.354,0,0,0,.716.3,1.544,1.544,0,0,0,.771.069l3.525-.055a1.6,1.6,0,0,0,.812-.172.682.682,0,0,0,.344-.379,1.066,1.066,0,0,0,.007-.468A1.728,1.728,0,0,0,26.308,131.376Z" transform="translate(0 -117.749)"/>
</svg>
